<mxfile host="app.diagrams.net" modified="2024-04-25T01:02:34.733Z" agent="Mozilla/5.0 (Windows NT 10.0; Win64; x64) AppleWebKit/537.36 (KHTML, like Gecko) Chrome/109.0.0.0 Safari/537.36 SLBrowser/9.0.3.1311 SLBChan/112" version="24.2.3" etag="3mqfMANt2gfWD55ortmg" type="github">
  <diagram name="第 1 页" id="ysrtHEagWiufMWXdO6Ju">
    <mxGraphModel>
      <root>
        <mxCell id="0" />
        <mxCell id="1" parent="0" />
      </root>
    </mxGraphModel>
  </diagram>
</mxfile>
